<svg xmlns="http://www.w3.org/2000/svg" width="18" height="18" viewBox="0 0 18 18">
    <path fill="#414141" fill-rule="evenodd" d="M9 0a9 9 0 1 1 0 18A9 9 0 0 1 9 0zm0 1a8 8 0 1 0 0 16A8 8 0 0 0 9 1zm.942 4.073c.491 0 .91.071 1.254.214.345.144.625.332.842.567.216.235.373.502.473.803a2.987 2.987 0 0 1 0 1.864 2.169 2.169 0 0 1-.473.809 2.346 2.346 0 0 1-.842.566c-.345.144-.763.215-1.254.215H8.127v2.816H6.4V5.073h3.542zm-.473 1.342H8.127v2.354h1.342c.198 0 .389-.015.572-.044.183-.03.345-.086.484-.17a.929.929 0 0 0 .336-.358c.084-.154.126-.356.126-.605 0-.25-.042-.451-.126-.605a.929.929 0 0 0-.336-.357c-.14-.085-.3-.142-.484-.171a3.617 3.617 0 0 0-.572-.044z"/>
</svg>
