<svg xmlns="http://www.w3.org/2000/svg" width="32" height="32" viewBox="0 0 32 32">
    <g fill="none" fill-rule="evenodd">
        <path fill="#F2F2F2" d="M-944-664H976V416H-944z"/>
        <path fill="#FFF" d="M-368-12h768v80h-768z"/>
        <path fill="#333" fill-rule="nonzero" d="M16.774 3.83c.21.135.388.313.522.522l3.735 5.815 6.685 1.756a1.733 1.733 0 0 1 .9 2.774l-4.375 5.349.396 6.9a1.733 1.733 0 0 1-2.36 1.714l-6.44-2.51-6.439 2.51a1.733 1.733 0 0 1-2.36-1.715l.397-6.9-4.377-5.348a1.733 1.733 0 0 1 .902-2.774l6.684-1.756 3.735-5.815a1.733 1.733 0 0 1 2.395-.521zm-1.273 1.243l-3.875 6.033a.667.667 0 0 1-.392.285l-6.936 1.821a.4.4 0 0 0-.208.64l4.541 5.55c.106.13.16.294.15.46l-.411 7.16a.4.4 0 0 0 .544.396l6.682-2.604a.667.667 0 0 1 .484 0l6.681 2.604a.4.4 0 0 0 .545-.396l-.411-7.16a.667.667 0 0 1 .15-.46l4.54-5.55a.4.4 0 0 0-.208-.64l-6.936-1.821a.667.667 0 0 1-.391-.285l-3.876-6.033a.4.4 0 0 0-.673 0zm.526 4.093c.33.163.466.563.303.893-.723 1.464-1.383 2.566-1.992 3.313-.701.861-2.355 1.521-5.031 2.087a.667.667 0 0 1-.276-1.304c2.384-.505 3.831-1.082 4.273-1.625.535-.656 1.148-1.68 1.83-3.06a.667.667 0 0 1 .893-.304z" opacity=".9"/>
    </g>
</svg>
