<svg xmlns="http://www.w3.org/2000/svg" width="24" height="24" viewBox="0 0 24 24">
    <path fill-rule="evenodd" d="M16.5 3C19.58 3 22 5.42 22 8.5c0 3.528-2.962 6.446-7.544 10.617L12 21.35l-2.126-1.925-.974-.889C4.686 14.666 2 11.86 2 8.5 2 5.42 4.42 3 7.5 3c1.74 0 3.41.81 4.5 2.09C13.09 3.81 14.76 3 16.5 3zm0 1c-1.418 0-2.82.659-3.739 1.738L12.538 6h-1.077l-.222-.262C10.319 4.658 8.918 4 7.5 4 4.972 4 3 5.972 3 8.5c0 .948.254 1.871.78 2.848 1.005 1.873 2.44 3.389 6.811 7.377L11.997 20l1.997-1.818.93-.856c3.024-2.805 4.274-4.181 5.146-5.706l.144-.26c.53-.98.786-1.908.786-2.86C21 5.972 19.028 4 16.5 4z"/>
</svg>
