<svg xmlns="http://www.w3.org/2000/svg" width="32" height="32" viewBox="0 0 32 32">
    <g fill="none" fill-rule="evenodd">
        <path fill="#F2F2F2" d="M-1196-664H724V416h-1920z"/>
        <path fill="#FFF" d="M-620-12h768v80h-768z"/>
        <path fill="#333" fill-rule="nonzero" d="M12.786 7.688c.21.097.4.235.557.406l10.78 11.77a1.733 1.733 0 0 1-.826 2.843L4.852 27.693A1.733 1.733 0 0 1 2.824 25.3l7.665-16.756a1.733 1.733 0 0 1 2.297-.855zm-2.401 4.286l-6.349 13.88a.4.4 0 0 0 .468.552l15.627-4.224-9.746-10.208zM11.7 9.098l-.725 1.583a.67.67 0 0 1 .1.086l10.222 10.705c.095.1.153.22.175.347l1.476-.399a.4.4 0 0 0 .191-.656L12.36 8.994a.4.4 0 0 0-.659.104zm17.21 6.082a.667.667 0 0 1-.59.735l-3.392.37a.667.667 0 1 1-.145-1.325l3.391-.37a.667.667 0 0 1 .735.59zm-3.503-7.384a.667.667 0 0 1-.062.941l-2.565 2.25a.667.667 0 0 1-.88-1.003l2.566-2.25a.667.667 0 0 1 .941.062zm-7.46-4.233a.667.667 0 0 1 .557.76l-.52 3.373a.667.667 0 1 1-1.318-.203l.52-3.372a.667.667 0 0 1 .76-.558z" opacity=".9"/>
    </g>
</svg>
