<svg xmlns="http://www.w3.org/2000/svg" width="18" height="18" viewBox="0 0 18 18">
    <path fill="#333" fill-rule="nonzero" d="M10.5 0a7.5 7.5 0 0 1 .133 14.999l-3.06 2.87a.5.5 0 0 1-.842-.364V14.96A7.501 7.501 0 0 1 7.5 0h3zm0 1h-3a6.5 6.5 0 0 0-.668 12.966 1 1 0 0 1 .899.995v1.39l2.218-2.082a1 1 0 0 1 .667-.27A6.5 6.5 0 0 0 10.5 1zm-2 9c.276 0 .5.237.5.53 0 .292-.224.529-.5.529h-3c-.276 0-.5-.237-.5-.53 0-.292.224-.529.5-.529h3zm4.467-3c.276 0 .5.237.5.53 0 .292-.224.529-.5.529H5.5c-.276 0-.5-.237-.5-.53C5 7.237 5.224 7 5.5 7h7.467zM10.3 4c.276 0 .5.237.5.53 0 .292-.224.529-.5.529H5.5c-.276 0-.5-.237-.5-.53C5 4.237 5.224 4 5.5 4h4.8z" opacity=".9"/>
</svg>
