<svg xmlns="http://www.w3.org/2000/svg" width="32" height="32" viewBox="0 0 32 32">
    <g fill="none" fill-rule="evenodd">
        <path fill="#F2F2F2" d="M-688-664h1920V416H-688z"/>
        <path fill="#FFF" d="M-112-12h768v80h-768z"/>
        <path fill="#333" fill-rule="nonzero" d="M22.42 5.024c1.162 1.16 1.268 2.984.333 4.31h3.291c.737 0 1.334.596 1.334 1.333v4c0 .736-.597 1.333-1.334 1.333v9.333A2.667 2.667 0 0 1 23.378 28H8.71a2.667 2.667 0 0 1-2.667-2.667V16a1.333 1.333 0 0 1-1.333-1.333v-4c0-.737.597-1.334 1.333-1.334l3.36.001c-.936-1.325-.83-3.15.33-4.31 1.303-1.302 3.437-1.278 4.769.054.514.514 1.111 1.426 1.576 2.426.462-1 1.06-1.912 1.574-2.426 1.331-1.332 3.466-1.356 4.768-.054zm-7.043 10.975l-8 .001v9.333c0 .737.598 1.334 1.334 1.334h6.666V15.998zm9.334.001h-8v10.666h6.667c.736 0 1.333-.596 1.333-1.333V16zm-9.333-5.333H6.044v4h9.333v-4zm10.666 0h-9.333v4h9.333v-4zm-15.366-4.7c-.777.776-.762 2.066.054 2.882.142.142.347.31.596.484h4.027l-.03-.1C14.977 8.136 14.29 6.75 13.56 6.02c-.815-.816-2.106-.83-2.882-.055zm7.917.054c-.67.67-1.444 2.114-1.787 3.313l4.017-.001.1-.07c.206-.149.376-.29.499-.414.815-.816.83-2.106.054-2.883-.776-.776-2.067-.761-2.883.055z" opacity=".9"/>
    </g>
</svg>
