<svg xmlns="http://www.w3.org/2000/svg" width="24" height="24" viewBox="0 0 24 24">
    <g fill="none" fill-rule="evenodd">
        <g fill="#000" fill-rule="nonzero">
            <g>
                <path d="M9.5 17c1.38 0 2.5 1.12 2.5 2.5S10.88 22 9.5 22 7 20.88 7 19.5 8.12 17 9.5 17zm7.5 0c1.38 0 2.5 1.12 2.5 2.5S18.38 22 17 22s-2.5-1.12-2.5-2.5S15.62 17 17 17zm-7.5 1.8c-.387 0-.7.313-.7.7 0 .387.313.7.7.7.387 0 .7-.313.7-.7 0-.387-.313-.7-.7-.7zm7.5 0c-.387 0-.7.313-.7.7 0 .387.313.7.7.7.387 0 .7-.313.7-.7 0-.387-.313-.7-.7-.7zM5.132 2c.71 0 1.322.497 1.468 1.192L7.19 6h.012l1.714 8h8.874l1.714-6H8.458L8 6h12.2l-.001.001.114.006c.76.073 1.355.713 1.355 1.493 0 .14-.019.278-.057.412l-2 7c-.184.644-.773 1.088-1.442 1.088H8.513c-.708 0-1.319-.494-1.467-1.186L4.728 4H2.3V2h2.832z" transform="translate(-316 -36) translate(0 24) translate(316 12)"/>
            </g>
        </g>
    </g>
</svg>
