<svg xmlns="http://www.w3.org/2000/svg" width="24" height="24" viewBox="0 0 24 24">
    <g fill="none" fill-rule="evenodd">
        <path fill="#414141" d="M16.839 14.495v-4.74a4.996 4.996 0 0 0-9.982.015v4.73H6.15C4.407 14.487 3 13.321 3 11.67a3.039 3.039 0 0 1 2.539-2.897c.35-3.058 3.005-5.273 6.31-5.273 3.291 0 5.938 2.198 6.305 5.238A3.038 3.038 0 0 1 21 11.67c0 1.47-1.117 2.557-2.592 2.785-.117.458-.266.91-.451 1.347-.885 2.09-2.433 3.497-4.718 3.864A1.749 1.749 0 0 1 10 18.75a1.75 1.75 0 0 1 3.378-.64c1.535-.366 2.558-1.379 3.199-2.893.1-.235.187-.476.263-.722z"/>
    </g>
</svg>
