<svg xmlns="http://www.w3.org/2000/svg" xmlns:xlink="http://www.w3.org/1999/xlink" width="40" height="40" viewBox="0 0 40 40">
    <defs>
        <rect id="a" width="40" height="40" rx="20"/>
        <rect id="c" width="40" height="40" rx="20"/>
    </defs>
    <g fill="none" fill-rule="evenodd">
        <mask id="b" fill="#fff">
            <use xlink:href="#a"/>
        </mask>
        <use fill="#D9D9D9" fill-rule="nonzero" xlink:href="#a"/>
        <g fill="#FFF" mask="url(#b)">
            <path d="M20 6c5.62 0 8.062 4.532 7.97 9.06.743.216 1.19 1.168 1.007 2.2-.192 1.088-1.008 1.853-1.824 1.71l.096.012c-.706 1.967-1.876 3.594-3.314 4.659-.522 1.864-.359 3.232.49 4.095.85.863 3.24 1.284 7.17 1.264h-.001H32a4 4 0 0 1 4 4v7a4 4 0 0 1-4 4H8a4 4 0 0 1-4-4v-7a4 4 0 0 1 4-4h.405c3.8.02 6.159-.374 7.08-1.18l.09-.084c.806-.82.994-2.095.562-3.826l-.052-.192c-1.444-1.04-2.6-2.672-3.298-4.74-.795.098-1.577-.656-1.764-1.718-.192-1.087.314-2.086 1.13-2.23l-.065.016C11.974 10.429 14.436 6 20 6zm0 23v-4h-.001v4H20z"/>
        </g>
        <rect width="38.5" height="38.5" x=".75" y=".75" stroke="#D9D9D9" stroke-width="1.5" rx="19.25"/>
    </g>
</svg>
