<svg xmlns="http://www.w3.org/2000/svg" xmlns:xlink="http://www.w3.org/1999/xlink" width="38" height="38" viewBox="0 0 38 38">
    <defs>
        <path id="a" d="M0 0h38v38H0z"/>
    </defs>
    <g fill="none" fill-rule="evenodd">
        <path fill="#FA0" d="M15.334 14.72a2.832 2.832 0 1 1-5.664-.003 2.832 2.832 0 0 1 5.664.003M28.334 14.726a2.832 2.832 0 1 1-5.66-.004 2.832 2.832 0 0 1 5.66.004M19.012 27.392a7.56 7.56 0 0 1-6.556-3.84 1.06 1.06 0 0 1 .398-1.434 1.06 1.06 0 0 1 1.436.398 5.433 5.433 0 0 0 4.722 2.774 5.458 5.458 0 0 0 4.705-2.721c.294-.504.94-.677 1.434-.383.504.292.674.932.382 1.434a7.564 7.564 0 0 1-6.52 3.772"/>
        <mask id="b" fill="#fff">
            <use xlink:href="#a"/>
        </mask>
        <path fill="#FA0" d="M19.007 3.94C10.703 3.936 3.944 10.687 3.94 18.991 3.937 27.3 10.688 34.058 18.992 34.06c8.304.005 15.063-6.746 15.068-15.053.003-8.304-6.748-15.063-15.053-15.068M18.99 38C8.512 37.996-.005 29.468 0 18.99.005 8.515 8.532-.004 19.01 0 29.488.006 38.005 8.533 38 19.01 37.995 29.489 29.467 38.006 18.99 38" mask="url(#b)"/>
    </g>
</svg>
